<svg version="1.1" id="Layer_1" xmlns="http://www.w3.org/2000/svg" xmlns:xlink="http://www.w3.org/1999/xlink" x="0px" y="0px"
	 width="100%" viewBox="0 0 428 451" enable-background="new 0 0 428 451" xml:space="preserve">
<path fill="#010101" opacity="1.000000" stroke="none" 
	d="
M240.000000,452.000000 
	C160.022598,452.000000 80.545189,452.000000 1.033890,452.000000 
	C1.033890,301.731995 1.033890,151.463974 1.033890,1.097976 
	C143.560745,1.097976 286.121582,1.097976 428.841187,1.097976 
	C428.841187,151.333206 428.841187,301.666595 428.841187,452.000000 
	C366.130585,452.000000 303.315308,452.000000 240.000000,452.000000 
M338.131226,86.320686 
	C333.361084,66.504066 328.590942,46.687450 323.830353,26.910526 
	C304.073669,26.910526 284.803619,26.910526 265.410156,26.910526 
	C265.410156,41.333363 265.410156,55.537655 265.410156,70.185921 
	C276.010834,70.185921 286.269318,70.185921 296.481628,70.185921 
	C314.192932,147.715790 331.778564,224.820679 349.516388,301.890533 
	C350.237488,305.023834 349.226624,306.267944 346.938019,307.860291 
	C319.629913,326.860107 292.395203,345.965363 265.125244,365.020111 
	C257.571014,370.298615 249.964066,375.501648 241.638443,381.252350 
	C241.638443,262.488373 241.638443,144.742249 241.638443,26.956303 
	C240.584259,26.842278 239.928421,26.709412 239.272552,26.709229 
	C193.946747,26.696535 148.620865,26.727163 103.295311,26.619930 
	C100.183640,26.612568 99.522644,27.943766 98.885536,30.572559 
	C75.996925,125.014824 53.059425,219.445343 29.946138,313.832794 
	C28.893690,318.130646 29.935354,320.323456 33.227974,322.885803 
	C43.018585,330.505005 52.508755,338.510223 62.574501,346.739136 
	C84.786568,253.466782 106.826164,160.918610 128.855774,68.412415 
	C146.678375,68.412415 164.102737,68.412415 181.565598,68.412415 
	C181.565598,117.367439 181.565598,166.064957 181.565598,215.205399 
	C157.934677,215.205399 134.681290,215.205399 111.442642,215.205399 
	C109.492691,224.650269 107.631348,233.665970 105.658791,243.220337 
	C131.440903,243.220337 156.523453,243.220337 182.064133,243.220337 
	C182.064133,306.692963 182.064133,369.740967 182.064133,433.002502 
	C202.003860,433.002502 221.480286,433.052277 240.955338,432.911713 
	C242.581299,432.899963 244.405899,431.886902 245.788925,430.865936 
	C294.370941,395.001282 342.889984,359.051361 391.515656,323.246185 
	C394.105865,321.338928 394.662476,319.673859 393.925049,316.747589 
	C390.840485,304.507690 387.940125,292.221436 384.970825,279.952484 
	C369.415833,215.680695 353.860413,151.408997 338.131226,86.320686 
z"/>
<path fill="#FEFEFD" opacity="1.000000" stroke="none" 
	d="
M338.218201,86.728973 
	C353.860413,151.408997 369.415833,215.680695 384.970825,279.952484 
	C387.940125,292.221436 390.840485,304.507690 393.925049,316.747589 
	C394.662476,319.673859 394.105865,321.338928 391.515656,323.246185 
	C342.889984,359.051361 294.370941,395.001282 245.788925,430.865936 
	C244.405899,431.886902 242.581299,432.899963 240.955338,432.911713 
	C221.480286,433.052277 202.003860,433.002502 182.064133,433.002502 
	C182.064133,369.740967 182.064133,306.692963 182.064133,243.220337 
	C156.523453,243.220337 131.440903,243.220337 105.658791,243.220337 
	C107.631348,233.665970 109.492691,224.650269 111.442642,215.205399 
	C134.681290,215.205399 157.934677,215.205399 181.565598,215.205399 
	C181.565598,166.064957 181.565598,117.367439 181.565598,68.412415 
	C164.102737,68.412415 146.678375,68.412415 128.855774,68.412415 
	C106.826164,160.918610 84.786568,253.466782 62.574501,346.739136 
	C52.508755,338.510223 43.018585,330.505005 33.227974,322.885803 
	C29.935354,320.323456 28.893690,318.130646 29.946138,313.832794 
	C53.059425,219.445343 75.996925,125.014824 98.885536,30.572559 
	C99.522644,27.943766 100.183640,26.612568 103.295311,26.619930 
	C148.620865,26.727163 193.946747,26.696535 239.272552,26.709229 
	C239.928421,26.709412 240.584259,26.842278 241.638443,26.956303 
	C241.638443,144.742249 241.638443,262.488373 241.638443,381.252350 
	C249.964066,375.501648 257.571014,370.298615 265.125244,365.020111 
	C292.395203,345.965363 319.629913,326.860107 346.938019,307.860291 
	C349.226624,306.267944 350.237488,305.023834 349.516388,301.890533 
	C331.778564,224.820679 314.192932,147.715790 296.481628,70.185921 
	C286.269318,70.185921 276.010834,70.185921 265.410156,70.185921 
	C265.410156,55.537655 265.410156,41.333363 265.410156,26.910526 
	C284.803619,26.910526 304.073669,26.910526 323.830353,26.910526 
	C328.590942,46.687450 333.361084,66.504066 338.218201,86.728973 
z"/>
</svg>